HIERARCHY
ROOT mixamorig:Hips
{
	OFFSET -0.000008 104.274872 1.554316
	CHANNELS 6 Xposition Yposition Zposition Xrotation Yrotation Zrotation
	JOINT mixamorig:Spine
	{
		OFFSET -0.000005 10.181595 0.131519
		CHANNELS 6 Xposition Yposition Zposition Xrotation Yrotation Zrotation
		JOINT mixamorig:Spine1
		{
			OFFSET -0.000000 9.893959 -1.470707
			CHANNELS 6 Xposition Yposition Zposition Xrotation Yrotation Zrotation
			JOINT mixamorig:Spine2
			{
				OFFSET -0.000000 9.220757 -1.370641
				CHANNELS 6 Xposition Yposition Zposition Xrotation Yrotation Zrotation
				JOINT mixamorig:Neck
				{
					OFFSET 0.000001 16.740417 -2.049036
					CHANNELS 6 Xposition Yposition Zposition Xrotation Yrotation Zrotation
					JOINT mixamorig:Head
					{
						OFFSET 0.000000 9.617874 1.685006
						CHANNELS 6 Xposition Yposition Zposition Xrotation Yrotation Zrotation
						JOINT mixamorig:HeadTop_End
						{
							OFFSET 0.000002 22.037354 7.501101
							CHANNELS 6 Xposition Yposition Zposition Xrotation Yrotation Zrotation
							End Site
							{
								OFFSET 0.000168 2310.654297 -282.823242
							}
						}
					}
				}
				JOINT mixamorig:RightShoulder
				{
					OFFSET -4.569970 11.014908 -2.160885
					CHANNELS 6 Xposition Yposition Zposition Xrotation Yrotation Zrotation
					JOINT mixamorig:RightArm
					{
						OFFSET -10.592851 -0.524811 -2.232101
						CHANNELS 6 Xposition Yposition Zposition Xrotation Yrotation Zrotation
						JOINT mixamorig:RightForeArm
						{
							OFFSET -27.841511 0.000031 -0.000004
							CHANNELS 6 Xposition Yposition Zposition Xrotation Yrotation Zrotation
							JOINT mixamorig:RightHand
							{
								OFFSET -28.328831 -0.000015 0.000015
								CHANNELS 6 Xposition Yposition Zposition Xrotation Yrotation Zrotation
								JOINT mixamorig:RightHandThumb1
								{
									OFFSET -2.464806 -1.573990 2.681852
									CHANNELS 6 Xposition Yposition Zposition Xrotation Yrotation Zrotation
									JOINT mixamorig:RightHandThumb2
									{
										OFFSET -3.215179 -1.872803 1.924282
										CHANNELS 6 Xposition Yposition Zposition Xrotation Yrotation Zrotation
										JOINT mixamorig:RightHandThumb3
										{
											OFFSET -2.654831 -1.527969 1.512609
											CHANNELS 6 Xposition Yposition Zposition Xrotation Yrotation Zrotation
											JOINT mixamorig:RightHandThumb4
											{
												OFFSET -2.018814 -1.152008 1.108052
												CHANNELS 6 Xposition Yposition Zposition Xrotation Yrotation Zrotation
												End Site
												{
													OFFSET -188.809540 -114.533607 132.431396
												}
											}
										}
									}
								}
								JOINT mixamorig:RightHandIndex1
								{
									OFFSET -9.108284 -0.517868 2.259835
									CHANNELS 6 Xposition Yposition Zposition Xrotation Yrotation Zrotation
									JOINT mixamorig:RightHandIndex2
									{
										OFFSET -3.699989 0.000000 0.001215
										CHANNELS 6 Xposition Yposition Zposition Xrotation Yrotation Zrotation
										JOINT mixamorig:RightHandIndex3
										{
											OFFSET -2.850006 0.000031 -0.000522
											CHANNELS 6 Xposition Yposition Zposition Xrotation Yrotation Zrotation
											JOINT mixamorig:RightHandIndex4
											{
												OFFSET -2.772186 -0.000015 -0.000020
												CHANNELS 6 Xposition Yposition Zposition Xrotation Yrotation Zrotation
												End Site
												{
													OFFSET -277.218445 0.000000 -0.050231
												}
											}
										}
									}
								}
								JOINT mixamorig:RightHandMiddle1
								{
									OFFSET -9.532516 -0.000031 -0.000023
									CHANNELS 6 Xposition Yposition Zposition Xrotation Yrotation Zrotation
									JOINT mixamorig:RightHandMiddle2
									{
										OFFSET -3.700005 -0.000015 0.003713
										CHANNELS 6 Xposition Yposition Zposition Xrotation Yrotation Zrotation
										JOINT mixamorig:RightHandMiddle3
										{
											OFFSET -2.949974 0.000015 -0.002054
											CHANNELS 6 Xposition Yposition Zposition Xrotation Yrotation Zrotation
											JOINT mixamorig:RightHandMiddle4
											{
												OFFSET -2.946640 0.000000 -0.000156
												CHANNELS 6 Xposition Yposition Zposition Xrotation Yrotation Zrotation
												End Site
												{
													OFFSET -294.664337 0.000000 -0.113670
												}
											}
										}
									}
								}
								JOINT mixamorig:RightHandRing1
								{
									OFFSET -9.103600 -0.043076 -1.865134
									CHANNELS 6 Xposition Yposition Zposition Xrotation Yrotation Zrotation
									JOINT mixamorig:RightHandRing2
									{
										OFFSET -3.379288 0.000000 -0.001055
										CHANNELS 6 Xposition Yposition Zposition Xrotation Yrotation Zrotation
										JOINT mixamorig:RightHandRing3
										{
											OFFSET -2.889687 -0.000015 0.000379
											CHANNELS 6 Xposition Yposition Zposition Xrotation Yrotation Zrotation
											JOINT mixamorig:RightHandRing4
											{
												OFFSET -2.638809 -0.000015 0.000941
												CHANNELS 6 Xposition Yposition Zposition Xrotation Yrotation Zrotation
												End Site
												{
													OFFSET -263.880371 0.000000 0.516020
												}
											}
										}
									}
								}
								JOINT mixamorig:RightHandPinky1
								{
									OFFSET -8.076683 -0.486710 -3.806280
									CHANNELS 6 Xposition Yposition Zposition Xrotation Yrotation Zrotation
									JOINT mixamorig:RightHandPinky2
									{
										OFFSET -3.600014 -0.000015 -0.003747
										CHANNELS 6 Xposition Yposition Zposition Xrotation Yrotation Zrotation
										JOINT mixamorig:RightHandPinky3
										{
											OFFSET -2.099983 0.000000 -0.005739
											CHANNELS 6 Xposition Yposition Zposition Xrotation Yrotation Zrotation
											JOINT mixamorig:RightHandPinky4
											{
												OFFSET -2.115768 -0.000031 -0.003680
												CHANNELS 6 Xposition Yposition Zposition Xrotation Yrotation Zrotation
												End Site
												{
													OFFSET -211.577087 0.000000 -0.350686
												}
											}
										}
									}
								}
							}
						}
					}
				}
				JOINT mixamorig:LeftShoulder
				{
					OFFSET 4.570447 11.014725 -2.160855
					CHANNELS 6 Xposition Yposition Zposition Xrotation Yrotation Zrotation
					JOINT mixamorig:LeftArm
					{
						OFFSET 10.592371 -0.524597 -2.232119
						CHANNELS 6 Xposition Yposition Zposition Xrotation Yrotation Zrotation
						JOINT mixamorig:LeftForeArm
						{
							OFFSET 27.841532 -0.000031 0.000026
							CHANNELS 6 Xposition Yposition Zposition Xrotation Yrotation Zrotation
							JOINT mixamorig:LeftHand
							{
								OFFSET 28.328846 -0.000061 0.000022
								CHANNELS 6 Xposition Yposition Zposition Xrotation Yrotation Zrotation
								JOINT mixamorig:LeftHandThumb1
								{
									OFFSET 2.466141 -1.576172 2.681732
									CHANNELS 6 Xposition Yposition Zposition Xrotation Yrotation Zrotation
									JOINT mixamorig:LeftHandThumb2
									{
										OFFSET 3.217812 -1.872070 1.916482
										CHANNELS 6 Xposition Yposition Zposition Xrotation Yrotation Zrotation
										JOINT mixamorig:LeftHandThumb3
										{
											OFFSET 2.656029 -1.528778 1.514513
											CHANNELS 6 Xposition Yposition Zposition Xrotation Yrotation Zrotation
											JOINT mixamorig:LeftHandThumb4
											{
												OFFSET 2.020889 -1.154053 1.115139
												CHANNELS 6 Xposition Yposition Zposition Xrotation Yrotation Zrotation
												End Site
												{
													OFFSET 190.885437 -115.081749 130.048782
												}
											}
										}
									}
								}
								JOINT mixamorig:LeftHandIndex1
								{
									OFFSET 9.109314 -0.518021 2.259871
									CHANNELS 6 Xposition Yposition Zposition Xrotation Yrotation Zrotation
									JOINT mixamorig:LeftHandIndex2
									{
										OFFSET 3.699989 0.000000 -0.000322
										CHANNELS 6 Xposition Yposition Zposition Xrotation Yrotation Zrotation
										JOINT mixamorig:LeftHandIndex3
										{
											OFFSET 2.850006 0.000000 0.000352
											CHANNELS 6 Xposition Yposition Zposition Xrotation Yrotation Zrotation
											JOINT mixamorig:LeftHandIndex4
											{
												OFFSET 2.774864 -0.000031 -0.000027
												CHANNELS 6 Xposition Yposition Zposition Xrotation Yrotation Zrotation
												End Site
												{
													OFFSET 277.486267 0.000000 -0.009857
												}
											}
										}
									}
								}
								JOINT mixamorig:LeftHandMiddle1
								{
									OFFSET 9.533394 0.000061 0.000044
									CHANNELS 6 Xposition Yposition Zposition Xrotation Yrotation Zrotation
									JOINT mixamorig:LeftHandMiddle2
									{
										OFFSET 3.699989 -0.000015 -0.000231
										CHANNELS 6 Xposition Yposition Zposition Xrotation Yrotation Zrotation
										JOINT mixamorig:LeftHandMiddle3
										{
											OFFSET 2.949997 -0.000015 -0.000059
											CHANNELS 6 Xposition Yposition Zposition Xrotation Yrotation Zrotation
											JOINT mixamorig:LeftHandMiddle4
											{
												OFFSET 2.952896 0.000031 0.000063
												CHANNELS 6 Xposition Yposition Zposition Xrotation Yrotation Zrotation
												End Site
												{
													OFFSET 295.289337 0.000000 0.022810
												}
											}
										}
									}
								}
								JOINT mixamorig:LeftHandRing1
								{
									OFFSET 9.104523 -0.042999 -1.865074
									CHANNELS 6 Xposition Yposition Zposition Xrotation Yrotation Zrotation
									JOINT mixamorig:LeftHandRing2
									{
										OFFSET 3.150009 -0.000031 0.000043
										CHANNELS 6 Xposition Yposition Zposition Xrotation Yrotation Zrotation
										JOINT mixamorig:LeftHandRing3
										{
											OFFSET 2.949982 -0.000015 0.000040
											CHANNELS 6 Xposition Yposition Zposition Xrotation Yrotation Zrotation
											JOINT mixamorig:LeftHandRing4
											{
												OFFSET 2.644348 0.000000 0.000057
												CHANNELS 6 Xposition Yposition Zposition Xrotation Yrotation Zrotation
												End Site
												{
													OFFSET 264.434631 0.000000 0.012105
												}
											}
										}
									}
								}
								JOINT mixamorig:LeftHandPinky1
								{
									OFFSET 8.077789 -0.486847 -3.806259
									CHANNELS 6 Xposition Yposition Zposition Xrotation Yrotation Zrotation
									JOINT mixamorig:LeftHandPinky2
									{
										OFFSET 3.599953 0.000031 0.014727
										CHANNELS 6 Xposition Yposition Zposition Xrotation Yrotation Zrotation
										JOINT mixamorig:LeftHandPinky3
										{
											OFFSET 2.100021 0.000015 0.007705
											CHANNELS 6 Xposition Yposition Zposition Xrotation Yrotation Zrotation
											JOINT mixamorig:LeftHandPinky4
											{
												OFFSET 2.125504 0.000031 0.007517
												CHANNELS 6 Xposition Yposition Zposition Xrotation Yrotation Zrotation
												End Site
												{
													OFFSET 212.550781 0.000000 0.625752
												}
											}
										}
									}
								}
							}
						}
					}
				}
			}
		}
	}
	JOINT mixamorig:RightUpLeg
	{
		OFFSET -8.207787 -6.751648 -1.599560
		CHANNELS 6 Xposition Yposition Zposition Xrotation Yrotation Zrotation
		JOINT mixamorig:RightLeg
		{
			OFFSET -0.000002 -44.370117 0.345942
			CHANNELS 6 Xposition Yposition Zposition Xrotation Yrotation Zrotation
			JOINT mixamorig:RightFoot
			{
				OFFSET 0.000003 -44.423679 -3.043532
				CHANNELS 6 Xposition Yposition Zposition Xrotation Yrotation Zrotation
				JOINT mixamorig:RightToeBase
				{
					OFFSET -0.000002 -8.728671 10.710558
					CHANNELS 6 Xposition Yposition Zposition Xrotation Yrotation Zrotation
					JOINT mixamorig:RightToe_End
					{
						OFFSET -0.000001 -0.000679 9.278119
						CHANNELS 6 Xposition Yposition Zposition Xrotation Yrotation Zrotation
						End Site
						{
							OFFSET 0.000000 -0.067690 927.812134
						}
					}
				}
			}
		}
	}
	JOINT mixamorig:LeftUpLeg
	{
		OFFSET 8.207793 -6.751686 -1.599556
		CHANNELS 6 Xposition Yposition Zposition Xrotation Yrotation Zrotation
		JOINT mixamorig:LeftLeg
		{
			OFFSET -0.000004 -44.370014 0.346954
			CHANNELS 6 Xposition Yposition Zposition Xrotation Yrotation Zrotation
			JOINT mixamorig:LeftFoot
			{
				OFFSET -0.000001 -44.423672 -3.044401
				CHANNELS 6 Xposition Yposition Zposition Xrotation Yrotation Zrotation
				JOINT mixamorig:LeftToeBase
				{
					OFFSET -0.000002 -8.728669 10.710558
					CHANNELS 6 Xposition Yposition Zposition Xrotation Yrotation Zrotation
					JOINT mixamorig:LeftToe_End
					{
						OFFSET -0.000003 -0.000679 9.278133
						CHANNELS 6 Xposition Yposition Zposition Xrotation Yrotation Zrotation
						End Site
						{
							OFFSET 0.000000 -0.068021 927.813477
						}
					}
				}
			}
		}
	}
}
MOTION
Frames: 3
Frame Time: 0.033333
0.000006 104.270477 1.554256 0.000010 0.000003 -0.000113 -0.000005 10.181587 0.131522 0.000001 -0.000003 0.000084 -0.000000 9.893967 -1.470711 0.000001 0.000000 -0.000000 -0.000000 9.220802 -1.370642 0.000000 -0.000000 -0.000000 0.000001 16.740433 -2.049030 0.000000 -0.000000 -0.000000 0.000000 9.617859 1.685014 0.000000 0.000000 0.000000 0.000002 22.037384 7.501101 0.000000 -0.000000 0.000000 -4.569968 11.014880 -2.160881 0.000008 0.000001 -0.000038 -10.592774 -0.524847 -2.231745 75.904179 66.919926 -54.537490 -27.841507 0.000002 0.000581 62.169714 105.025674 -76.338279 -28.328835 0.000021 0.000033 -0.000317 -0.000045 0.000007 -2.464515 -1.574182 2.682128 87.093313 -128.064298 137.037091 -3.215103 -1.872973 1.924389 307.219805 -13.968311 -14.955982 -2.654867 -1.528209 1.512755 308.674390 1.186936 -13.890035 -2.018833 -1.151995 1.108066 -0.000004 0.000002 0.000002 -9.108354 -0.517959 2.260282 264.519839 23.722188 -333.949669 -3.699735 0.000037 0.001821 181.793230 22.480869 -188.907542 -2.850074 0.000321 -0.000101 127.463214 9.076536 -18.270736 -2.772179 -0.000015 -0.000025 0.000000 -0.000000 0.000000 -9.532509 -0.000057 0.000520 234.840072 18.524407 35.015873 -3.700034 0.000283 0.004178 140.009165 2.639915 -7.013044 -2.949926 0.000362 -0.001923 79.842357 -8.667361 7.260821 -2.946641 -0.000000 -0.000165 0.000002 0.000001 -0.000003 -9.103580 -0.042994 -1.864547 219.296610 19.243068 50.762208 -3.379177 0.000374 -0.000695 127.052474 -9.169836 18.271980 -2.889588 0.000350 0.000421 69.500501 -21.361511 14.892865 -2.638813 -0.000011 0.000941 0.000000 0.000001 -0.000002 -8.076640 -0.486633 -3.805715 211.476085 11.634136 39.520984 -3.599856 0.000353 -0.003400 -231.012653 -15.105296 31.448906 -2.099856 0.000318 -0.005699 -115.093837 -158.634709 -166.249714 -2.115784 -0.000042 -0.003676 0.000001 0.000002 -0.000003 4.570446 11.014691 -2.160851 -0.000018 0.000010 -0.000021 10.592527 -0.524543 -2.232396 69.137955 -66.343369 48.495514 27.841742 -0.000056 -0.000101 59.376371 -103.603847 71.849642 28.328835 -0.000012 0.000023 0.000022 -0.000089 -0.000001 2.466121 -1.576170 2.681874 74.651557 118.434469 -123.532523 3.217845 -1.872016 1.916544 114.978175 150.288450 -158.260251 2.656078 -1.528758 1.514607 -64.116611 14.754856 19.551456 2.020891 -1.154081 1.115149 -0.000003 0.000004 0.000002 9.109258 -0.517868 2.260117 -89.722451 -19.705342 -19.605954 3.699785 -0.000008 -0.000219 -176.721446 -19.944936 -161.445441 2.850074 0.000324 0.000282 -217.840360 -6.956520 20.107240 2.774887 -0.000030 -0.000020 0.000001 -0.000001 -0.000000 9.533131 0.000250 0.000181 196.274911 -19.571687 259.314416 3.700033 0.000292 -0.000356 120.180621 -4.289415 7.445359 2.949999 0.000185 -0.000227 79.876911 5.756209 -4.818878 2.952840 -0.000030 0.000062 -0.000000 0.000000 0.000001 9.104301 -0.042962 -1.864977 184.906226 -14.688195 216.780287 3.149937 0.000320 -0.000141 104.480468 12.184014 -15.689569 2.949911 0.000182 -0.000183 68.588794 20.201466 -13.853668 2.644327 0.000013 0.000056 -0.000000 0.000003 -0.000001 8.077503 -0.486613 -3.806150 186.555989 -7.076042 265.914018 3.599836 0.000313 0.014538 106.962846 20.240535 -26.782290 2.099932 0.000147 0.007512 62.025235 26.681260 -16.129242 2.125514 0.000014 0.007525 -0.000002 0.000000 -0.000001 -8.207786 -6.751667 -1.599560 -0.077001 -0.000003 0.000080 -0.000002 -44.370110 0.345938 0.153719 -0.000000 -0.000000 0.000000 -44.423679 -3.043532 -0.076700 0.000000 -0.000002 -0.000006 -8.728667 10.710559 -0.000009 -0.000000 -0.000000 -0.000001 -0.000679 9.278123 0.000000 -0.000000 -0.000000 8.207792 -6.751710 -1.599556 -0.074518 -0.000003 0.000081 -0.000002 -44.370014 0.346960 0.148822 0.000002 0.000000 -0.000001 -44.423664 -3.044403 -0.074314 0.000000 -0.000002 -0.000004 -8.728671 10.710558 0.000007 -0.000000 -0.000000 0.000000 -0.000680 9.278137 -0.000000 0.000000 -0.000001 
0.000006 104.270477 1.554256 0.000010 0.000003 -0.000113 -0.000005 10.181587 0.131522 0.000001 -0.000003 0.000084 -0.000000 9.893967 -1.470711 0.000001 0.000000 -0.000000 -0.000000 9.220802 -1.370642 0.000000 -0.000000 -0.000000 0.000001 16.740433 -2.049030 0.000000 -0.000000 -0.000000 0.000000 9.617859 1.685014 0.000000 0.000000 0.000000 0.000002 22.037384 7.501101 0.000000 -0.000000 0.000000 -4.569968 11.014880 -2.160881 0.000008 0.000001 -0.000038 -10.592773 -0.524847 -2.231739 76.209687 66.570097 -54.483767 -27.841499 0.000004 0.000565 62.024996 105.111687 -76.265701 -28.328842 0.000006 0.000017 -0.000319 -0.000046 0.000007 -2.464519 -1.574201 2.682115 86.497734 -126.693042 136.132596 -3.215113 -1.872990 1.924392 307.987027 -13.326835 -14.645425 -2.654842 -1.528176 1.512732 309.758231 1.771465 -13.590707 -2.018834 -1.151979 1.108052 -0.000003 -0.000001 0.000002 -9.108350 -0.517972 2.260293 260.668951 23.296168 -332.684717 -3.699758 0.000036 0.001831 179.725705 22.385470 -178.506775 -2.850083 0.000345 -0.000121 129.170953 9.397072 -19.625536 -2.772166 -0.000001 -0.000009 -0.000003 0.000000 0.000001 -9.532499 -0.000023 0.000525 227.617516 17.888223 39.388335 -3.700031 0.000299 0.004142 135.237937 2.113105 -4.925681 -2.949946 0.000338 -0.001953 74.272078 -8.042352 6.098443 -2.946622 0.000011 -0.000150 -0.000002 0.000005 0.000002 -9.103567 -0.042982 -1.864534 216.417494 18.042425 51.488398 -3.379175 0.000396 -0.000711 124.654914 -10.562807 19.973147 -2.889566 0.000339 0.000424 67.418789 -22.617073 15.184238 -2.638809 -0.000012 0.000950 0.000001 0.000002 -0.000000 -8.076658 -0.486646 -3.805710 211.561763 10.971230 37.294646 -3.599844 0.000371 -0.003406 -232.375494 -16.153399 32.553614 -2.099834 0.000296 -0.005718 -114.849849 -156.650757 -164.895110 -2.115767 -0.000056 -0.003671 0.000001 0.000002 -0.000007 4.570446 11.014691 -2.160851 -0.000018 0.000010 -0.000021 10.592531 -0.524530 -2.232392 69.372298 -65.787836 48.228539 27.841743 -0.000063 -0.000105 59.540760 -103.650825 72.077122 28.328835 -0.000014 0.000032 0.000019 -0.000088 -0.000001 2.466119 -1.576167 2.681857 72.840095 118.914946 -122.256766 3.217823 -1.871994 1.916562 114.645927 150.374510 -158.106653 2.656081 -1.528746 1.514632 -63.422336 14.237400 19.209385 2.020911 -1.154072 1.115156 0.000001 0.000008 0.000001 9.109258 -0.517868 2.260112 -90.664266 -19.992010 -20.214314 3.699801 0.000008 -0.000218 -177.457085 -20.496508 -165.935293 2.850086 0.000337 0.000303 -219.404063 -7.089543 19.625620 2.774887 -0.000015 -0.000015 -0.000001 0.000000 0.000000 9.533128 0.000232 0.000173 194.806243 -19.423385 254.404384 3.700031 0.000298 -0.000360 119.951973 -3.825103 6.609806 2.949987 0.000183 -0.000239 79.361074 6.127408 -5.083258 2.952857 -0.000031 0.000053 0.000001 0.000003 0.000000 9.104328 -0.042992 -1.864988 183.298986 -14.716114 205.151494 3.149929 0.000328 -0.000162 104.668114 12.553756 -16.217345 2.949909 0.000168 -0.000177 68.084965 21.184814 -14.400677 2.644321 0.000015 0.000053 -0.000002 -0.000002 0.000002 8.077510 -0.486712 -3.806177 184.301972 -6.870296 246.021037 3.599832 0.000313 0.014534 106.395407 19.895151 -26.060467 2.099931 0.000147 0.007505 61.592979 27.204232 -16.320314 2.125493 -0.000028 0.007507 -0.000002 -0.000001 0.000001 -8.207786 -6.751667 -1.599560 -0.077001 -0.000003 0.000080 -0.000002 -44.370110 0.345938 0.153719 -0.000000 -0.000000 0.000000 -44.423679 -3.043532 -0.076700 0.000000 -0.000002 -0.000006 -8.728667 10.710559 -0.000009 -0.000000 -0.000000 -0.000001 -0.000679 9.278123 0.000000 -0.000000 -0.000000 8.207792 -6.751710 -1.599556 -0.074518 -0.000003 0.000081 -0.000002 -44.370014 0.346960 0.148822 0.000002 0.000000 -0.000001 -44.423664 -3.044403 -0.074314 0.000000 -0.000002 -0.000004 -8.728671 10.710558 0.000007 -0.000000 -0.000000 0.000000 -0.000680 9.278137 -0.000000 0.000000 -0.000001 
0.000006 104.270477 1.554256 0.000010 0.000003 -0.000113 -0.000005 10.181587 0.131522 0.000001 -0.000003 0.000084 -0.000000 9.893967 -1.470711 0.000001 0.000000 -0.000000 -0.000000 9.220802 -1.370642 0.000000 -0.000000 -0.000000 0.000001 16.740433 -2.049030 0.000000 -0.000000 -0.000000 0.000000 9.617859 1.685014 0.000000 0.000000 0.000000 0.000002 22.037384 7.501101 0.000000 -0.000000 0.000000 -4.569968 11.014880 -2.160881 0.000008 0.000001 -0.000038 -10.592777 -0.524838 -2.231743 76.342110 66.567707 -54.592678 -27.841503 0.000023 0.000564 61.920958 105.062748 -76.102043 -28.328829 0.000005 0.000018 -0.000323 -0.000045 0.000007 -2.464520 -1.574213 2.682110 88.001708 -126.663604 137.214402 -3.215121 -1.872985 1.924388 307.232974 -13.506141 -14.928934 -2.654849 -1.528186 1.512732 309.032729 2.113242 -13.751973 -2.018842 -1.152019 1.108053 -0.000002 -0.000001 0.000002 -9.108335 -0.517986 2.260300 260.995735 22.777854 -333.433743 -3.699761 0.000019 0.001825 179.757451 21.166271 -178.588533 -2.850072 0.000340 -0.000082 130.666327 8.003178 -17.319968 -2.772159 -0.000015 -0.000025 -0.000002 0.000001 0.000001 -9.532506 -0.000034 0.000537 225.928191 17.332630 39.700222 -3.700024 0.000326 0.004148 135.137082 1.155521 -2.600386 -2.949936 0.000341 -0.001934 75.153268 -9.120947 7.028006 -2.946618 -0.000015 -0.000146 -0.000001 0.000000 0.000003 -9.103578 -0.042981 -1.864524 214.899061 17.274839 51.544286 -3.379179 0.000405 -0.000721 124.510209 -11.117276 20.943674 -2.889571 0.000357 0.000424 68.727795 -23.073153 15.876978 -2.638820 0.000004 0.000941 0.000002 0.000000 0.000001 -8.076648 -0.486644 -3.805701 210.028440 10.206279 36.569444 -3.599855 0.000358 -0.003409 -232.213591 -16.662311 33.629816 -2.099831 0.000324 -0.005722 -112.770856 -155.874069 -163.764154 -2.115778 -0.000045 -0.003670 0.000002 0.000002 -0.000002 4.570446 11.014691 -2.160851 -0.000018 0.000010 -0.000021 10.592532 -0.524534 -2.232394 69.708754 -65.923442 48.608322 27.841740 -0.000041 -0.000105 60.002249 -103.421659 72.361264 28.328823 0.000002 0.000031 0.000021 -0.000089 0.000000 2.466125 -1.576195 2.681864 72.101704 118.431915 -121.425191 3.217819 -1.871972 1.916542 114.638319 150.730623 -158.153918 2.656062 -1.528759 1.514632 -63.869529 14.342989 19.395480 2.020895 -1.154069 1.115147 0.000001 0.000003 0.000001 9.109263 -0.517875 2.260109 -92.392802 -20.621277 -21.474849 3.699827 -0.000023 -0.000236 -179.023343 -20.438677 -174.512153 2.850078 0.000350 0.000284 -219.547169 -7.439465 20.497852 2.774886 -0.000032 -0.000023 0.000001 -0.000000 0.000000 9.533131 0.000230 0.000175 195.491653 -19.401764 257.010402 3.700022 0.000299 -0.000362 119.563636 -3.624576 6.214945 2.950000 0.000179 -0.000233 78.613374 6.190977 -5.068308 2.952854 -0.000010 0.000058 0.000002 0.000000 -0.000002 9.104315 -0.042974 -1.864989 184.731031 -15.123355 214.578152 3.149936 0.000312 -0.000140 104.455729 12.847028 -16.531600 2.949906 0.000176 -0.000180 66.954876 21.214853 -14.119884 2.644336 0.000013 0.000064 -0.000000 0.000003 0.000002 8.077511 -0.486688 -3.806167 185.199186 -7.680461 249.607624 3.599852 0.000320 0.014549 105.176314 20.100794 -25.774190 2.099913 0.000138 0.007513 59.181697 26.579656 -15.189811 2.125505 -0.000019 0.007522 0.000001 0.000001 -0.000001 -8.207786 -6.751667 -1.599560 -0.077001 -0.000003 0.000080 -0.000002 -44.370110 0.345938 0.153719 -0.000000 -0.000000 0.000000 -44.423679 -3.043532 -0.076700 0.000000 -0.000002 -0.000006 -8.728667 10.710559 -0.000009 -0.000000 -0.000000 -0.000001 -0.000679 9.278123 0.000000 -0.000000 -0.000000 8.207792 -6.751710 -1.599556 -0.074518 -0.000003 0.000081 -0.000002 -44.370014 0.346960 0.148822 0.000002 0.000000 -0.000001 -44.423664 -3.044403 -0.074314 0.000000 -0.000002 -0.000004 -8.728671 10.710558 0.000007 -0.000000 -0.000000 0.000000 -0.000680 9.278137 -0.000000 0.000000 -0.000001 
